<svg xmlns="http://www.w3.org/2000/svg" viewBox="0 0 24 24" id="snapchat"><path fill="#ffeb3b" d="m20.277 20.016c.033-.155.087-.405.136-.502.878-.141 2.683-.463 3.028-1.275.174-.418-.075-.759-.393-.811v-.001c-3.074-.516-4.46-3.729-4.517-3.866-.005-.009-.008-.018-.013-.026-.445-.923.126-1.221 1.13-1.546 2.021-.64 1.782-1.828.794-2.187-.923-.384-1.51.55-2.243.208.182-3.105.487-5.236-1.668-7.312-2.486-2.392-6.829-2.164-9.069.004-2.11 2.043-1.86 4.118-1.666 7.308-.41.183-.996-.014-1.401-.208-1.021-.486-2.767 1.111-.381 2.071 1.034.413 2.012.531 1.466 1.661-.005.009-.009.018-.012.026-.759 1.77-2.433 3.514-4.518 3.865-.334.055-.561.416-.395.811v.002c.341.811 2.153 1.136 3.029 1.276.079.152.17.713.27 1.055.288.993 1.292-.011 3.214.318 1.424.242 2.63 2.278 4.906 2.108 1.353.086 2.359-.55 3.342-1.256l.001-.002c.957-.687 1.62-1.204 3.68-.791 1.006.198 1.091-.044 1.28-.93z"></path><path d="m11.862 23.25c-1.687 0-2.608-.678-3.349-1.222-.822-.605-1.47-1.083-3.217-.746-.446.083-1.626.308-1.982-.888-.046-.15-.091-.345-.133-.53-.002-.01-.004-.02-.006-.029-1.342-.241-2.655-.645-3.059-1.583-.168-.389-.153-.815.04-1.169.189-.346.523-.58.915-.643 2.279-.375 3.809-2.771 3.931-3.468-.115-.065-.424-.169-.637-.241-.473-.159-1.061-.357-1.52-.771-.634-.575-.76-1.372-.323-2.03.505-.76 1.556-1.079 2.355-.708.092.043.176.077.253.104-.095-1.487-.165-3.351.376-4.552.927-2.065 2.687-3.454 4.956-3.908 2.37-.476 4.856.18 6.485 1.708 2.153 2.025 2.088 4.102 1.921 6.7.267-.102.567-.215.9-.215.951 0 1.783.605 1.935 1.408.061.323.124 1.429-1.618 2.111-.1.038-.22.077-.352.118-.177.056-.557.176-.729.286.159.744 1.66 3.087 3.925 3.458.384.062.726.302.912.642.193.351.208.776.04 1.168-.409.938-1.719 1.341-3.058 1.583-.214.974-.525 1.75-2.119 1.442-1.664-.327-2.135.006-2.992.608-.012.009-.023.019-.036.027-1.622 1.137-2.409 1.34-3.814 1.34zm-5.513-3.58c1.492 0 2.312.604 3.055 1.149.679.5 1.265.931 2.459.931.984 0 1.484-.042 2.924-1.047.01-.008.021-.016.03-.023.989-.693 1.889-1.326 4.176-.876.131.025.224.038.287.043.031-.112.065-.266.085-.355.075-.347.13-.527.2-.664.11-.212.314-.359.55-.396 1.303-.204 1.899-.436 2.171-.593-2.044-.503-3.589-2.163-4.318-3.498-.453-.827-.582-1.479-.385-1.936.3-.697 1.108-.953 1.698-1.14.1-.032.19-.06.263-.087.513-.201.672-.402.687-.456-.02-.025-.191-.164-.461-.164-.065.002-.253.073-.377.121-.404.154-1.014.387-1.638.103-.282-.129-.457-.418-.438-.728l.04-.632c.168-2.589.27-4.152-1.436-5.756-1.261-1.184-3.289-1.707-5.164-1.33-1.78.356-3.159 1.44-3.882 3.052-.438.974-.308 2.945-.221 4.25l.027.416c.02.315-.161.608-.45.734-.662.288-1.445.046-1.988-.208-.045-.021-.15-.021-.271.029-.123.052-.188.126-.204.157 0-.005.031.029.086.079.227.204.615.335.991.461.604.204 1.289.434 1.574 1.099.201.474.07 1.135-.389 1.969-.726 1.319-2.271 2.962-4.318 3.462.271.158.868.391 2.172.594.231.036.434.178.545.385.089.166.138.369.217.715.024.109.05.223.076.325.097-.011.222-.034.294-.048.498-.095.939-.137 1.333-.137zm13.748-.019h.01zm2.591-1.729h.003c-.001 0-.002 0-.003 0z"></path></svg>